{
  "accessors": [
    {
      "bufferView": 2,
      "componentType": 5126,
      "count": 5619,
      "max": [
        0.7233690023422241,
        0.9925230145454407,
        0.9974669814109802
      ],
      "min": [
        -0.7142789959907532,
        -0.9244440197944641,
        -0.9825000166893005
      ],
      "type": "VEC3"
    },
    {
      "bufferView": 2,
      "byteOffset": 67428,
      "componentType": 5126,
      "count": 5619,
      "max": [
        0.9990739226341248,
        0.9999945163726807,
        0.9999197721481323
      ],
      "min": [
        -0.9979705214500427,
        -0.9999876022338867,
        -0.9996082186698914
      ],
      "type": "VEC3"
    },
    {
      "bufferView": 3,
      "componentType": 5126,
      "count": 5619,
      "max": [
        0.9998568296432495,
        0.9992775917053223,
        0.9997746348381042,
        1.0
      ],
      "min": [
        -0.9989922046661377,
        -0.9995494484901428,
        -0.9998976588249207,
        1.0
      ],
      "type": "VEC4"
    },
    {
      "bufferView": 1,
      "componentType": 5126,
      "count": 5619,
      "max": [
        0.9710109829902649,
        0.9982600212097168
      ],
      "min": [
        0.0017379999626427889,
        0.0017350000562146306
      ],
      "type": "VEC2"
    },
    {
      "bufferView": 0,
      "componentType": 5125,
      "count": 31758,
      "type": "SCALAR"
    }
  ],
  "asset": {
    "extras": {
      "author": "Nol22 (https://sketchfab.com/manoloescobedo22)",
      "license": "CC-BY-4.0 (http://creativecommons.org/licenses/by/4.0/)",
      "source": "https://sketchfab.com/3d-models/lunalow1-0825c0184aa94b5c9e3da10955d9b17d",
      "title": "Lunalow1"
    },
    "generator": "Sketchfab-15.32.0",
    "version": "2.0"
  },
  "bufferViews": [
    {
      "buffer": 0,
      "byteLength": 127032,
      "name": "floatBufferViews",
      "target": 34963
    },
    {
      "buffer": 0,
      "byteLength": 44952,
      "byteOffset": 127032,
      "byteStride": 8,
      "name": "floatBufferViews",
      "target": 34962
    },
    {
      "buffer": 0,
      "byteLength": 134856,
      "byteOffset": 171984,
      "byteStride": 12,
      "name": "floatBufferViews",
      "target": 34962
    },
    {
      "buffer": 0,
      "byteLength": 89904,
      "byteOffset": 306840,
      "byteStride": 16,
      "name": "floatBufferViews",
      "target": 34962
    }
  ],
  "buffers": [
    {
      "byteLength": 396744,
      "uri": "scene.bin"
    }
  ],
  "images": [
    {
      "uri": "textures/zula_baseColor.png"
    },
    {
      "uri": "textures/zula_metallicRoughness.png"
    },
    {
      "uri": "textures/zula_normal.png"
    }
  ],
  "materials": [
    {
      "doubleSided": true,
      "name": "zula",
      "normalTexture": {
        "index": 2
      },
      "pbrMetallicRoughness": {
        "baseColorTexture": {
          "index": 0
        },
        "metallicFactor": 0.0,
        "metallicRoughnessTexture": {
          "index": 1
        }
      }
    }
  ],
  "meshes": [
    {
      "name": "Object_0",
      "primitives": [
        {
          "attributes": {
            "NORMAL": 1,
            "POSITION": 0,
            "TANGENT": 2,
            "TEXCOORD_0": 3
          },
          "indices": 4,
          "material": 0,
          "mode": 4
        }
      ]
    }
  ],
  "nodes": [
    {
      "children": [
        1
      ],
      "matrix": [
        1.0,
        0.0,
        0.0,
        0.0,
        0.0,
        2.220446049250313e-16,
        -1.0,
        0.0,
        0.0,
        1.0,
        2.220446049250313e-16,
        0.0,
        0.0,
        0.0,
        0.0,
        1.0
      ],
      "name": "Sketchfab_model"
    },
    {
      "children": [
        2
      ],
      "name": "lunalow.obj.cleaner.materialmerger.gles"
    },
    {
      "mesh": 0,
      "name": "Object_2"
    }
  ],
  "samplers": [
    {
      "magFilter": 9729,
      "minFilter": 9987,
      "wrapS": 10497,
      "wrapT": 10497
    }
  ],
  "scene": 0,
  "scenes": [
    {
      "name": "Sketchfab_Scene",
      "nodes": [
        0
      ]
    }
  ],
  "textures": [
    {
      "sampler": 0,
      "source": 0
    },
    {
      "sampler": 0,
      "source": 1
    },
    {
      "sampler": 0,
      "source": 2
    }
  ]
}
