{
  "accessors": [
    {
      "bufferView": 0,
      "componentType": 5126,
      "count": 732,
      "max": [
        15.142982482910156,
        -3.082770824432373,
        21.576505661010742
      ],
      "min": [
        0.0391957052052021,
        -15.081836700439453,
        -16.38139533996582
      ],
      "type": "VEC3"
    },
    {
      "bufferView": 0,
      "byteOffset": 12,
      "componentType": 5126,
      "count": 732,
      "type": "VEC3"
    },
    {
      "bufferView": 1,
      "componentType": 5125,
      "count": 3984,
      "type": "SCALAR"
    }
  ],
  "asset": {
    "version": "2.0"
  },
  "bufferViews": [
    {
      "buffer": 0,
      "byteLength": 23424,
      "byteStride": 32,
      "target": 34962
    },
    {
      "buffer": 0,
      "byteLength": 15936,
      "byteOffset": 23424,
      "target": 34963
    }
  ],
  "buffers": [
    {
      "byteLength": 39360,
      "uri": "tooth3.bin"
    }
  ],
  "materials": [
    {
      "name": "M_01___Default",
      "pbrMetallicRoughness": {
        "baseColorFactor": [
          0.8823530077934265,
          0.8816969990730286,
          0.8128340244293213,
          1.0
        ],
        "metallicFactor": 0.0,
        "roughnessFactor": 0.0
      }
    }
  ],
  "meshes": [
    {
      "name": "Box003",
      "primitives": [
        {
          "attributes": {
            "NORMAL": 1,
            "POSITION": 0
          },
          "indices": 2,
          "material": 0,
          "mode": 4
        }
      ]
    }
  ],
  "nodes": [
    {
      "matrix": [
        0.0254,
        0.0,
        0.0,
        0.0,
        0.0,
        0.0254,
        0.0,
        0.0,
        0.0,
        0.0,
        0.0254,
        0.0,
        0.0,
        0.0,
        0.0,
        1.0
      ],
      "mesh": 0,
      "name": "Box003"
    },
    {
      "children": [
        0
      ],
      "matrix": [
        -0.9984836578369142,
        -0.022887766361236572,
        -0.05006577447056771,
        0.0,
        0.04962496086955071,
        0.019438622519373894,
        -0.9985787272453309,
        0.0,
        0.02382844686508179,
        -0.9995490312576295,
        -0.01827334240078926,
        0.0,
        0.8809235549926757,
        0.43889196052551266,
        0.876806364440918,
        1.0
      ]
    }
  ],
  "scenes": [
    {
      "nodes": [
        1
      ]
    }
  ]
}
