{
  "accessors": [
    {
      "bufferView": 0,
      "componentType": 5126,
      "count": 728,
      "max": [
        -6.523987770080566,
        -2.6042370796203613,
        19.985143661499023
      ],
      "min": [
        -22.90762710571289,
        -13.160051345825195,
        -15.968932151794434
      ],
      "type": "VEC3"
    },
    {
      "bufferView": 0,
      "byteOffset": 12,
      "componentType": 5126,
      "count": 728,
      "type": "VEC3"
    },
    {
      "bufferView": 1,
      "componentType": 5125,
      "count": 3984,
      "type": "SCALAR"
    }
  ],
  "asset": {
    "version": "2.0"
  },
  "bufferViews": [
    {
      "buffer": 0,
      "byteLength": 23296,
      "byteStride": 32,
      "target": 34962
    },
    {
      "buffer": 0,
      "byteLength": 15936,
      "byteOffset": 23296,
      "target": 34963
    }
  ],
  "buffers": [
    {
      "byteLength": 39232,
      "uri": "tooth2.bin"
    }
  ],
  "materials": [
    {
      "name": "M_01___Default",
      "pbrMetallicRoughness": {
        "baseColorFactor": [
          0.8823530077934265,
          0.8816969990730286,
          0.8128340244293213,
          1.0
        ],
        "metallicFactor": 0.0,
        "roughnessFactor": 0.0
      }
    }
  ],
  "meshes": [
    {
      "name": "Box002",
      "primitives": [
        {
          "attributes": {
            "NORMAL": 1,
            "POSITION": 0
          },
          "indices": 2,
          "material": 0,
          "mode": 4
        }
      ]
    }
  ],
  "nodes": [
    {
      "matrix": [
        0.0254,
        0.0,
        0.0,
        0.0,
        0.0,
        0.0254,
        0.0,
        0.0,
        0.0,
        0.0,
        0.0254,
        0.0,
        0.0,
        0.0,
        0.0,
        1.0
      ],
      "mesh": 0,
      "name": "Box002"
    },
    {
      "children": [
        0
      ],
      "matrix": [
        -0.9985451102256775,
        -0.05033073574304581,
        -0.019353367388248444,
        0.0,
        0.018229512497782707,
        0.022693397477269173,
        -0.9995762705802917,
        0.0,
        0.05074860155582428,
        -0.9984747171401975,
        -0.02174287661910057,
        0.0,
        1.1386899917602538,
        0.43784551277160644,
        0.8313381126403808,
        1.0
      ]
    }
  ],
  "scenes": [
    {
      "nodes": [
        1
      ]
    }
  ]
}
