{
  "accessors": [
    {
      "bufferView": 0,
      "componentType": 5126,
      "count": 1158,
      "max": [
        -18.492345809936523,
        1.2646726369857788,
        16.508155822753906
      ],
      "min": [
        -37.452613830566406,
        -15.257200241088867,
        -15.17939281463623
      ],
      "type": "VEC3"
    },
    {
      "bufferView": 0,
      "byteOffset": 12,
      "componentType": 5126,
      "count": 1158,
      "type": "VEC3"
    },
    {
      "bufferView": 1,
      "componentType": 5125,
      "count": 6528,
      "type": "SCALAR"
    }
  ],
  "asset": {
    "version": "2.0"
  },
  "bufferViews": [
    {
      "buffer": 0,
      "byteLength": 37056,
      "byteStride": 32,
      "target": 34962
    },
    {
      "buffer": 0,
      "byteLength": 26112,
      "byteOffset": 37056,
      "target": 34963
    }
  ],
  "buffers": [
    {
      "byteLength": 63168,
      "uri": "tooth5.bin"
    }
  ],
  "materials": [
    {
      "name": "M_01___Default",
      "pbrMetallicRoughness": {
        "baseColorFactor": [
          0.8823530077934265,
          0.8816969990730286,
          0.8128340244293213,
          1.0
        ],
        "metallicFactor": 0.0,
        "roughnessFactor": 0.0
      }
    }
  ],
  "meshes": [
    {
      "name": "Box006",
      "primitives": [
        {
          "attributes": {
            "NORMAL": 1,
            "POSITION": 0
          },
          "indices": 2,
          "material": 0,
          "mode": 4
        }
      ]
    }
  ],
  "nodes": [
    {
      "matrix": [
        0.0254,
        0.0,
        0.0,
        0.0,
        0.0,
        0.0254,
        0.0,
        0.0,
        0.0,
        0.0,
        0.0254,
        0.0,
        0.0,
        0.0,
        0.0,
        1.0
      ],
      "mesh": 0,
      "name": "Box006"
    },
    {
      "children": [
        0
      ],
      "matrix": [
        -0.9992128610610962,
        0.03655843436717987,
        -0.015399511903524399,
        0.0,
        0.01540216151624918,
        -0.0002091915812343359,
        -0.999881386756897,
        0.0,
        -0.03655732050538063,
        -0.999331533908844,
        -0.0003540519974194467,
        0.0,
        1.396917446899414,
        0.40031582679748534,
        -0.799291376876831,
        1.0
      ]
    }
  ],
  "scenes": [
    {
      "nodes": [
        1
      ]
    }
  ]
}
